<svg id="Layer_1" data-name="Layer 1" xmlns="http://www.w3.org/2000/svg" viewBox="0 0 4860.32 1170.26"><defs><style>.cls-1{fill:#f4962a;}.cls-2{fill:#1e1e1d;}</style></defs><polygon class="cls-1" points="1621.68 752.5 1600.22 851.46 773.97 851.46 395.82 473.31 866.11 3.03 869.14 0 872.17 3.03 1621.68 752.5"/><polygon class="cls-1" points="632.5 851.46 137.26 851.46 0 218.96 632.5 851.46"/><polygon class="cls-1" points="1737.73 217.65 1737.73 217.78 1646.9 636.25 1483.04 472.39 1737.73 217.65"/><rect class="cls-1" x="160.03" y="956.39" width="1417.42" height="213.87"/><polygon class="cls-1" points="1621.68 752.5 1600.22 851.46 773.97 851.46 395.82 473.31 866.11 3.03 872.17 3.03 1621.68 752.5"/><path class="cls-2" d="M2284.58,963.53h102.69v29.41q-.48,89.67-63.88,153.07t-153.08,63.89h-58.82q-89.67-.48-153.08-63.89t-63.88-153.07V688.23q.48-89.67,63.88-153.08t153.08-63.88h58.82q89.67.48,153.08,63.88t63.88,153.08v29.41H2284.58V688.23q-.49-47.25-33.75-80.52T2170.31,574h-58.82q-47.25.49-80.52,33.75t-33.75,80.52V992.94q.48,47.25,33.75,80.51t80.52,33.75h58.82q47.25-.46,80.52-33.75t33.75-80.51Z" transform="translate(-38.86 -89.22)"/><path class="cls-2" d="M2568.79,750.18q56.65-33,123.67-33t123.67,33a245,245,0,0,1,89.67,89.68q33,56.65,33,123.67t-33,123.66a244.79,244.79,0,0,1-89.67,89.68q-56.67,33-123.67,33t-123.67-33a244.64,244.64,0,0,1-89.67-89.68q-33-56.64-33-123.66t33-123.67A244.87,244.87,0,0,1,2568.79,750.18Zm123.67,69.67q-59.31,0-101.49,42.19t-42.19,101.49q0,59.79,41.95,101.73t101.73,41.94q59.77,0,101.73-41.94t41.95-101.73q0-59.78-41.95-101.73T2692.46,819.85Z" transform="translate(-38.86 -89.22)"/><path class="cls-2" d="M3100.34,763.92q64.6-46.75,143.68-46.76V819.85q-59.3,0-101.49,42.19t-42.19,101.49V1209.9H2997.65V717.64h102.69Z" transform="translate(-38.86 -89.22)"/><path class="cls-2" d="M3426,750.18q56.64-33,123.66-33t123.67,33A245,245,0,0,1,3763,839.86q33,56.65,33,123.67t-33,123.66a244.82,244.82,0,0,1-89.68,89.68q-56.66,33-123.67,33t-123.66-33a244.59,244.59,0,0,1-89.68-89.68q-33-56.64-33-123.66t33-123.67A244.82,244.82,0,0,1,3426,750.18Zm123.66,69.67q-59.3,0-101.49,42.19T3406,963.53q0,59.79,41.94,101.73t101.73,41.94q59.78,0,101.73-41.94t41.95-101.73q0-59.78-41.95-101.73T3549.69,819.85Z" transform="translate(-38.86 -89.22)"/><path class="cls-2" d="M3957.58,1209.9h-102.7V717.64h102.7v46.28q64.11-46.27,143.67-46.28,102.21.48,174.05,72.32t72.32,173.57V1209.9H4244.93V963.53q0-59.78-42-101.73t-101.73-41.95q-59.79,0-101.73,41.95t-41.94,101.73Z" transform="translate(-38.86 -89.22)"/><path class="cls-2" d="M4796.49,717.64h102.69V1209.9H4796.49v-46.29q-76.66,55-170.2,44.84t-156.69-80.52q-62.68-70.38-62.68-164.4t62.68-164.41q62.67-69.9,156.45-80t170.44,44.83ZM4652.81,1107.2q59.31,0,101.49-42.18t42.19-101.49q0-59.78-41.95-101.73t-101.73-41.95q-59.79,0-101.73,41.95t-41.94,101.73q0,59.79,41.94,101.73T4652.81,1107.2Z" transform="translate(-38.86 -89.22)"/></svg>